<svg width="855" height="228" viewBox="0 0 855 228" fill="none" xmlns="http://www.w3.org/2000/svg">
<rect width="855" height="228" rx="15" fill="black"/>
<path d="M95.6762 58.96C110.652 58.96 122.364 63.088 130.812 71.344C139.26 79.6 143.484 91.312 143.484 106.48C143.484 121.648 139.26 133.36 130.812 141.616C122.364 149.872 110.652 154 95.6762 154H65.0042V58.96H95.6762ZM96.8282 143.2C107.676 143.2 116.124 139.984 122.172 133.552C128.316 127.024 131.388 118 131.388 106.48C131.388 94.96 128.316 85.984 122.172 79.552C116.124 73.024 107.676 69.76 96.8282 69.76H76.5242V143.2H96.8282ZM225.521 114.256C225.521 116.944 225.329 119.632 224.945 122.32H170.657C171.329 129.616 173.729 135.28 177.857 139.312C182.081 143.344 187.505 145.36 194.129 145.36C199.409 145.36 203.777 144.448 207.233 142.624C210.785 140.8 213.185 138.16 214.433 134.704L224.081 139.744C221.201 144.832 217.361 148.72 212.561 151.408C207.761 154.096 201.617 155.44 194.129 155.44C183.281 155.44 174.737 152.128 168.497 145.504C162.353 138.88 159.281 129.712 159.281 118C159.281 106.288 162.209 97.12 168.065 90.496C174.017 83.872 182.417 80.56 193.265 80.56C199.985 80.56 205.793 82.048 210.689 85.024C215.585 88 219.281 92.032 221.777 97.12C224.273 102.208 225.521 107.92 225.521 114.256ZM193.265 90.64C186.929 90.64 181.793 92.512 177.857 96.256C174.017 100 171.665 105.28 170.801 112.096H214.433C213.665 105.376 211.457 100.144 207.809 96.4C204.161 92.56 199.313 90.64 193.265 90.64ZM306.313 114.256C306.313 116.944 306.121 119.632 305.737 122.32H251.449C252.121 129.616 254.521 135.28 258.649 139.312C262.873 143.344 268.297 145.36 274.921 145.36C280.201 145.36 284.569 144.448 288.025 142.624C291.577 140.8 293.977 138.16 295.225 134.704L304.873 139.744C301.993 144.832 298.153 148.72 293.353 151.408C288.553 154.096 282.409 155.44 274.921 155.44C264.073 155.44 255.529 152.128 249.289 145.504C243.145 138.88 240.073 129.712 240.073 118C240.073 106.288 243.001 97.12 248.857 90.496C254.809 83.872 263.209 80.56 274.057 80.56C280.777 80.56 286.585 82.048 291.481 85.024C296.377 88 300.073 92.032 302.569 97.12C305.065 102.208 306.313 107.92 306.313 114.256ZM274.057 90.64C267.721 90.64 262.585 92.512 258.649 96.256C254.809 100 252.457 105.28 251.593 112.096H295.225C294.457 105.376 292.249 100.144 288.601 96.4C284.953 92.56 280.105 90.64 274.057 90.64ZM360.753 80.56C370.833 80.56 378.801 83.92 384.657 90.64C390.609 97.264 393.585 106.384 393.585 118C393.585 129.616 390.609 138.784 384.657 145.504C378.801 152.128 370.833 155.44 360.753 155.44C355.473 155.44 350.721 154.288 346.497 151.984C342.369 149.68 339.153 146.608 336.849 142.768V184.24H325.329V82H335.409L336.129 94.528C338.241 90.304 341.457 86.944 345.777 84.448C350.193 81.856 355.185 80.56 360.753 80.56ZM359.457 145.36C366.465 145.36 371.985 142.912 376.017 138.016C380.049 133.024 382.065 126.352 382.065 118C382.065 109.648 380.049 103.024 376.017 98.128C371.985 93.136 366.465 90.64 359.457 90.64C352.545 90.64 347.025 93.04 342.897 97.84C338.865 102.64 336.849 109.072 336.849 117.136V118.864C336.849 126.928 338.865 133.36 342.897 138.16C347.025 142.96 352.545 145.36 359.457 145.36ZM488.639 154H474.383L434.639 90.352L424.559 71.632H424.415L424.991 86.896V154H414.047V58.96H428.303L467.903 122.32L478.127 141.328H478.271L477.695 126.064V58.96H488.639V154ZM575.267 114.256C575.267 116.944 575.075 119.632 574.691 122.32H520.403C521.075 129.616 523.475 135.28 527.603 139.312C531.827 143.344 537.251 145.36 543.875 145.36C549.155 145.36 553.523 144.448 556.979 142.624C560.531 140.8 562.931 138.16 564.179 134.704L573.827 139.744C570.947 144.832 567.107 148.72 562.307 151.408C557.507 154.096 551.363 155.44 543.875 155.44C533.027 155.44 524.483 152.128 518.243 145.504C512.099 138.88 509.027 129.712 509.027 118C509.027 106.288 511.955 97.12 517.811 90.496C523.763 83.872 532.163 80.56 543.011 80.56C549.731 80.56 555.539 82.048 560.435 85.024C565.331 88 569.027 92.032 571.523 97.12C574.019 102.208 575.267 107.92 575.267 114.256ZM543.011 90.64C536.675 90.64 531.539 92.512 527.603 96.256C523.763 100 521.411 105.28 520.547 112.096H564.179C563.411 105.376 561.203 100.144 557.555 96.4C553.907 92.56 549.059 90.64 543.011 90.64ZM656.635 82V154H646.555L645.835 143.056C641.035 151.312 632.443 155.44 620.059 155.44C612.283 155.44 605.899 153.28 600.907 148.96C596.011 144.64 593.563 138.016 593.563 129.088V82H605.083V126.064C605.083 133.072 606.523 138.064 609.403 141.04C612.283 143.92 616.507 145.36 622.075 145.36C628.699 145.36 634.171 143.344 638.491 139.312C642.907 135.28 645.115 129.232 645.115 121.168V82H656.635ZM714.543 80.56C717.999 80.56 720.639 81.04 722.463 82L720.159 93.232C717.855 91.984 714.831 91.36 711.087 91.36C708.015 91.36 704.991 92.272 702.015 94.096C699.135 95.824 696.735 98.512 694.815 102.16C692.991 105.712 692.079 110.032 692.079 115.12V154H680.559V82H689.919L691.503 93.808C695.535 84.976 703.215 80.56 714.543 80.56ZM764.594 80.56C775.442 80.56 783.938 83.872 790.082 90.496C796.322 97.12 799.442 106.288 799.442 118C799.442 129.712 796.322 138.88 790.082 145.504C783.938 152.128 775.442 155.44 764.594 155.44C753.746 155.44 745.202 152.128 738.962 145.504C732.818 138.88 729.746 129.712 729.746 118C729.746 106.288 732.818 97.12 738.962 90.496C745.202 83.872 753.746 80.56 764.594 80.56ZM764.594 90.496C757.298 90.496 751.586 92.944 747.458 97.84C743.33 102.736 741.266 109.456 741.266 118C741.266 126.544 743.33 133.264 747.458 138.16C751.586 143.056 757.298 145.504 764.594 145.504C771.89 145.504 777.602 143.056 781.73 138.16C785.858 133.264 787.922 126.544 787.922 118C787.922 109.456 785.858 102.736 781.73 97.84C777.602 92.944 771.89 90.496 764.594 90.496Z" fill="#F693F6"/>
</svg>
